<svg fill="#000000" xmlns="http://www.w3.org/2000/svg" viewBox="0 0 64 64" width="64px" height="64px"><path d="M57,10H38V5.384c0-0.889-0.391-1.727-1.072-2.298c-0.681-0.572-1.573-0.813-2.45-0.656L5.305,7.578C3.39,7.916,2,9.572,2,11.517v38.967c0,1.944,1.39,3.601,3.305,3.938l29.174,5.148h0c0.174,0.031,0.349,0.046,0.523,0.046c0.7,0,1.381-0.244,1.926-0.702C37.609,58.343,38,57.505,38,56.616V52h19c1.654,0,3-1.346,3-3V13C60,11.346,58.654,10,57,10z M36,56.616c0,0.405-0.224,0.654-0.357,0.766c-0.134,0.112-0.414,0.289-0.817,0.22h0L5.652,52.453C4.695,52.284,4,51.456,4,50.483V11.517c0-0.973,0.695-1.801,1.652-1.97l29.173-5.148c0.403-0.067,0.683,0.107,0.817,0.22C35.776,4.729,36,4.979,36,5.384V56.616z M58,49c0,0.552-0.449,1-1,1H38v-6h13c0.552,0,1-0.447,1-1s-0.448-1-1-1H38v-4h5.375c0.552,0,1-0.447,1-1s-0.448-1-1-1H38v-4h13c0.552,0,1-0.447,1-1s-0.448-1-1-1H38v-4h13c0.552,0,1-0.447,1-1s-0.448-1-1-1H38v-4h13c0.552,0,1-0.447,1-1s-0.448-1-1-1H38v-6h19c0.551,0,1,0.448,1,1V49z"/><path d="M51 36h-4c-.552 0-1 .447-1 1s.448 1 1 1h4c.552 0 1-.447 1-1S51.552 36 51 36zM30.243 20.03c-.533-.134-1.079.19-1.213.728L24.949 37.08l-3.986-14.348C20.843 22.3 20.449 22 20 22s-.843.3-.963.732L15.051 37.08 10.97 20.758c-.134-.537-.677-.861-1.213-.728s-.861.677-.728 1.212l5 20c.11.44.503.752.957.758.452-.014.855-.295.977-.732L20 26.736l4.037 14.531C24.157 41.701 24.551 42 25 42c.004 0 .009 0 .013 0 .454-.006.847-.317.957-.758l5-20C31.104 20.707 30.778 20.164 30.243 20.03z"/></svg>